<svg width="128" height="128" viewBox="0 0 64 64" fill="none" xmlns="http://www.w3.org/2000/svg">
  <path d="M32 8c10.6 0 17 8.8 17 20.5 0 8.8 2.8 17.5 8.5 26.1.6.8.3 1.9-.6 2.4-1.8.9-4.9 1.8-8.5.5-2.8-1-4.8-3.2-6.1-5.1-2 2.3-5.2 5.1-10.3 5.1-5.1 0-8.3-2.8-10.3-5.1-1.3 1.9-3.3 4.1-6.1 5.1-3.6 1.3-6.7.4-8.5-.5-.9-.5-1.2-1.6-.6-2.4C12.2 46 15 37.3 15 28.5 15 16.8 21.4 8 32 8Z" fill="#F5F2ED"/>
  <ellipse cx="25.2" cy="31.8" rx="4.7" ry="3.6" fill="#0F1115"/>
  <ellipse cx="38.8" cy="31.8" rx="4.7" ry="3.6" fill="#0F1115"/>
</svg>
